<?xml version="1.0" encoding="UTF-8"?>
<svg id="Layer_1" data-name="Layer 1" xmlns="http://www.w3.org/2000/svg" viewBox="0 0 1200 997">
  <defs>
    <style>
      .cls-1 {
        fill: #fff;
      }
    </style>
  </defs>
  <path class="cls-1" d="M1200,244.01v483.46c0,146.26-116.8,267.64-263.03,269.05-147.67,1.41-268.28-118.3-268.28-265.66v-209.38L317.07,169.85c-31.03-31.03-73.74-39.51-114.27-22.71-40.53,16.76-64.75,53.01-64.75,96.87v486.85c0,71.4,58.96,129.31,130.75,127.58,69.65-1.66,124.48-60.3,124.48-129.98v-253.08c0-12.73,15.39-19.1,24.39-10.1l105.31,105.31c5.35,5.35,8.35,12.6,8.35,20.16v136.73c0,146.26-116.8,267.64-263.03,269.05C120.61,997.92,0,878.21,0,730.86V244.01C0,143.91,57.46,57.92,149.98,19.59,242.46-18.74,343.88,1.45,414.67,72.25l372.27,372.27c12.67,12.67,19.78,29.84,19.78,47.76v236.18c0,69.68,54.87,128.32,124.51,129.98,71.76,1.73,130.72-56.18,130.72-127.58V244.01c0-43.86-24.22-80.11-64.75-96.87-40.53-16.8-83.24-8.32-114.27,22.71l-77.74,77.74c-5.57,5.6-14.62,5.6-20.19,0l-77.42-77.39c-5.57-5.6-5.57-14.62,0-20.22l77.74-77.74C856.12,1.45,957.54-18.74,1050.02,19.59c92.52,38.33,149.98,124.32,149.98,224.42Z"/>
</svg>